<svg xmlns="http://www.w3.org/2000/svg" id="calendar_1_" width="59.346" height="59.346" data-name="calendar (1)" viewBox="0 0 59.346 59.346">
    <defs>
        <style>
            .cls-3{fill:#ff8066}.cls-4{fill:#fd435b}.cls-6{fill:#463f3f}.cls-7{fill:#5b5555}
        </style>
    </defs>
    <path id="Path_2635" fill="#f0f7ff" d="M54.692 120H7.071L0 123.593v41.844h45.321L59.346 155v-31.407z" data-name="Path 2635" transform="translate(0 -106.091)"/>
    <path id="Path_2636" fill="#dfe7f4" d="M285.673 155v-31.407L281.018 120H256v45.437h15.648z" data-name="Path 2636" transform="translate(-226.327 -106.091)"/>
    <path id="Path_2637" d="M29.673 30H0v14.025h59.346V30z" class="cls-3" data-name="Path 2637" transform="translate(0 -26.523)"/>
    <path id="Path_2638" d="M256 30h29.673v14.025H256z" class="cls-4" data-name="Path 2638" transform="translate(-226.327 -26.523)"/>
    <path id="Path_2639" fill="#c7cfe1" d="M405.025 422v2.469l-8.079 7.963H391V422z" data-name="Path 2639" transform="translate(-345.679 -373.086)"/>
    <g id="Group_590" data-name="Group 590" transform="translate(34.889)">
        <path id="Path_2640" d="M301 0h3.477v10.432H301z" class="cls-6" data-name="Path 2640" transform="translate(-301)"/>
    </g>
    <g id="Group_591" data-name="Group 591" transform="translate(48.798)">
        <path id="Path_2641" d="M421 0h3.477v10.432H421z" class="cls-6" data-name="Path 2641" transform="translate(-421)"/>
    </g>
    <path id="Path_2642" d="M163.171 212a12.171 12.171 0 1 0 12.171 12.171A12.185 12.185 0 0 0 163.171 212zm0 20.864a8.679 8.679 0 0 1-7.245-13.48l7.245 7.245 4.786 4.786a8.634 8.634 0 0 1-4.786 1.449zm7.245-3.907l-7.245-7.245-4.786-4.786a8.679 8.679 0 0 1 12.031 12.031z" class="cls-3" data-name="Path 2642" transform="translate(-133.498 -187.427)"/>
    <path id="Path_2643" d="M268.171 224.171A12.185 12.185 0 0 0 256 212v3.477a8.679 8.679 0 0 1 7.245 13.48L256 221.712v4.917l4.786 4.786a8.634 8.634 0 0 1-4.786 1.449v3.477a12.185 12.185 0 0 0 12.171-12.17z" class="cls-4" data-name="Path 2643" transform="translate(-226.327 -187.427)"/>
    <g id="Group_592" data-name="Group 592" transform="translate(7.071)">
        <path id="Path_2644" d="M61 0h3.477v10.432H61z" class="cls-7" data-name="Path 2644" transform="translate(-61)"/>
    </g>
    <g id="Group_593" data-name="Group 593" transform="translate(20.98)">
        <path id="Path_2645" d="M181 0h3.477v10.432H181z" class="cls-7" data-name="Path 2645" transform="translate(-181)"/>
    </g>
</svg>
