<svg xmlns="http://www.w3.org/2000/svg" width="62.174" height="62.275" viewBox="0 0 62.174 62.275">
    <defs>
        <style>
            .cls-1{fill:#e3e7ea}.cls-5{fill:#fff5f5}
        </style>
    </defs>
    <g id="google-calendar" transform="translate(-.414)">
        <g id="Group_596" data-name="Group 596" transform="translate(4.184)">
            <path id="Path_2677" d="M84.323 18.488H33.238a1.823 1.823 0 0 1-1.824-1.824V5.473A5.479 5.479 0 0 1 36.887 0h43.787a5.479 5.479 0 0 1 5.473 5.473v11.19a1.823 1.823 0 0 1-1.824 1.825z" class="cls-1" data-name="Path 2677" transform="translate(-31.414)"/>
        </g>
        <path id="Path_2678" fill="#babac0" d="M278.307 0h-21.893v18.488h25.542a1.823 1.823 0 0 0 1.824-1.824V5.473A5.479 5.479 0 0 0 278.307 0z" data-name="Path 2678" transform="translate(-224.863)"/>
        <g id="Calendar_1_" transform="translate(.414 7.298)">
            <g id="Group_598" data-name="Group 598" transform="translate(0 7.541)">
                <g id="Group_597" data-name="Group 597">
                    <path id="Path_2679" fill="#4086f4" d="M4.114 145.718L.485 128.422a5.6 5.6 0 0 1 1.2-4.488 5.5 5.5 0 0 1 4.2-1.934h51.231a5.44 5.44 0 0 1 5.4 6.349l-3.63 17.373 3.63 17.291a5.594 5.594 0 0 1-1.2 4.488 5.5 5.5 0 0 1-4.2 1.934H5.885a5.44 5.44 0 0 1-5.4-6.349l3.629-17.369z" data-name="Path 2679" transform="translate(-.414 -122)"/>
                </g>
            </g>
            <path id="Path_2680" fill="#4175df" d="M4.115 145.714h54.773l3.629-17.369a5.44 5.44 0 0 0-5.4-6.349H5.886a5.5 5.5 0 0 0-4.2 1.934 5.6 5.6 0 0 0-1.2 4.488z" data-name="Path 2680" transform="translate(-.414 -114.459)"/>
            <g id="Group_599" data-name="Group 599" transform="translate(11.018)">
                <circle id="Ellipse_85" cx="1.824" cy="1.824" r="1.824" class="cls-5" data-name="Ellipse 85"/>
            </g>
            <g id="Group_600" data-name="Group 600" transform="translate(47.507)">
                <circle id="Ellipse_86" cx="1.824" cy="1.824" r="1.824" class="cls-1" data-name="Ellipse 86"/>
            </g>
            <g id="Group_601" data-name="Group 601" transform="translate(16.803 18.488)">
                <path id="Path_2681" d="M145.547 237.542a7.309 7.309 0 0 1-6.881-4.866 1.824 1.824 0 0 1 3.439-1.215 3.65 3.65 0 1 0 3.442-4.866h-2.268a1.824 1.824 0 0 1 0-3.649h2.268a3.649 3.649 0 1 0-3.442-4.866 1.824 1.824 0 1 1-3.439-1.215 7.3 7.3 0 1 1 11.7 7.905 7.294 7.294 0 0 1-4.821 12.771z" class="cls-5" data-name="Path 2681" transform="translate(-138.561 -212)"/>
            </g>
            <path id="Path_2682" d="M139.779 219.193a1.821 1.821 0 0 0 2.327-1.112 3.65 3.65 0 1 1 3.442 4.866h-2.268a1.825 1.825 0 0 0-1.824 1.824h8.914a7.3 7.3 0 1 0-11.7-7.905 1.821 1.821 0 0 0 1.109 2.327z" class="cls-1" data-name="Path 2682" transform="translate(-121.759 -193.512)"/>
            <g id="Group_602" data-name="Group 602" transform="translate(34.735 18.488)">
                <path id="Path_2683" d="M293.293 237.544a1.823 1.823 0 0 1-1.824-1.824v-18.486l-2.637 1.759a1.824 1.824 0 1 1-2.024-3.036l5.473-3.649a1.824 1.824 0 0 1 2.837 1.518v21.893a1.823 1.823 0 0 1-1.825 1.825z" class="cls-5" data-name="Path 2683" transform="translate(-285.994 -212.002)"/>
            </g>
            <path id="Path_2684" d="M288.832 218.993l2.637-1.759v7.538h3.649v-10.946a1.824 1.824 0 0 0-2.837-1.518l-5.473 3.649a1.824 1.824 0 0 0 2.024 3.036z" class="cls-1" data-name="Path 2684" transform="translate(-251.259 -193.514)"/>
        </g>
    </g>
</svg>
