<svg xmlns="http://www.w3.org/2000/svg" id="Google" width="263.358" height="78.046" viewBox="0 0 263.358 78.046">
    <defs>
        <linearGradient id="linear-gradient" x1="1.261" x2="1.192" y1="2.051" y2="2.087" gradientUnits="objectBoundingBox">
            <stop offset="0" stop-color="#00a0ff"/>
            <stop offset=".007" stop-color="#00a1ff"/>
            <stop offset=".26" stop-color="#00beff"/>
            <stop offset=".512" stop-color="#00d2ff"/>
            <stop offset=".76" stop-color="#00dfff"/>
            <stop offset="1" stop-color="#00e3ff"/>
        </linearGradient>
        <linearGradient id="linear-gradient-2" x1=".409" x2=".28" y1="5.126" y2="5.126" gradientUnits="objectBoundingBox">
            <stop offset="0" stop-color="#ffe000"/>
            <stop offset=".409" stop-color="#ffbd00"/>
            <stop offset=".775" stop-color="orange"/>
            <stop offset="1" stop-color="#ff9c00"/>
        </linearGradient>
        <linearGradient id="linear-gradient-3" x1=".968" x2=".894" y1="3.064" y2="3.16" gradientUnits="objectBoundingBox">
            <stop offset="0" stop-color="#ff3a44"/>
            <stop offset="1" stop-color="#c31162"/>
        </linearGradient>
        <linearGradient id="linear-gradient-4" x1=".911" x2=".944" y1="3.986" y2="4.029" gradientUnits="objectBoundingBox">
            <stop offset="0" stop-color="#32a071"/>
            <stop offset=".069" stop-color="#2da771"/>
            <stop offset=".476" stop-color="#15cf74"/>
            <stop offset=".801" stop-color="#06e775"/>
            <stop offset="1" stop-color="#00f076"/>
        </linearGradient>
    </defs>
    <rect id="Rectangle_807" width="263.358" height="78.046" fill="#a6a6a6" data-name="Rectangle 807" rx="39.023"/>
    <rect id="Rectangle_808" width="260.237" height="74.911" data-name="Rectangle 808" rx="37.455" transform="translate(1.561 1.561)"/>
    <path id="Path_3112" fill="#fff" stroke="#fff" stroke-miterlimit="10" stroke-width="0.2px" d="M931.506 212.653a3.612 3.612 0 0 1-.928 2.652 4.126 4.126 0 1 1-2.917-7.028 3.53 3.53 0 0 1 1.591.4 2.886 2.886 0 0 1 1.193.928l-.663.663a2.473 2.473 0 0 0-2.122-.928 2.638 2.638 0 0 0-2.122.928 3.2 3.2 0 0 0 0 4.508 3.414 3.414 0 0 0 2.122.928 2.908 2.908 0 0 0 2.254-.928 2.2 2.2 0 0 0 .663-1.591h-2.917v-1.061h3.845v.53zm6.1-3.315h-3.58v2.519h3.315v.928h-3.315v2.515h3.58v1.061h-4.641v-7.951h4.641zm4.376 7.028h-1.062v-7.028h-2.254v-.928h5.569v.928h-2.254zm6.1 0v-7.956h1.061v7.956zm5.569 0h-1.061v-7.028h-2.254v-.928h5.437v.928h-2.254v7.028zm12.6-1.061a4.162 4.162 0 1 1 1.193-2.917 3.9 3.9 0 0 1-1.197 2.912zm-5.039-.663a3.129 3.129 0 0 0 2.122.928 2.638 2.638 0 0 0 2.122-.928 3.2 3.2 0 0 0 .928-2.254 2.732 2.732 0 0 0-.928-2.254 3.129 3.129 0 0 0-2.122-.928 2.638 2.638 0 0 0-2.122.928 3.2 3.2 0 0 0-.928 2.254 2.731 2.731 0 0 0 .924 2.254zm7.691 1.724v-7.956h1.193l3.845 6.232v-6.232H975v7.956h-1.061l-4.111-6.5v6.5h-.928z" data-name="Path 3112" transform="translate(-826.26 -186.35)"/>
    <path id="Path_3113" fill="#fff" d="M955.575 342.9a5.579 5.579 0 0 0-5.7 5.7 5.66 5.66 0 0 0 5.7 5.7 5.579 5.579 0 0 0 5.7-5.7 5.5 5.5 0 0 0-5.7-5.7zm0 9.017a3.459 3.459 0 0 1 0-6.9 3.212 3.212 0 0 1 3.182 3.448 3.291 3.291 0 0 1-3.182 3.45zm-12.331-9.017a5.579 5.579 0 0 0-5.7 5.7 5.659 5.659 0 0 0 5.7 5.7 5.579 5.579 0 0 0 5.7-5.7 5.5 5.5 0 0 0-5.7-5.7zm0 9.017a3.459 3.459 0 0 1 0-6.9 3.212 3.212 0 0 1 3.182 3.448 3.291 3.291 0 0 1-3.182 3.45zm-14.718-7.293v2.387h5.7a5.013 5.013 0 0 1-1.326 3.05 5.869 5.869 0 0 1-4.376 1.724 6.173 6.173 0 0 1-6.232-6.365 6.255 6.255 0 0 1 6.232-6.365 6.574 6.574 0 0 1 4.376 1.724l1.724-1.724a8.5 8.5 0 0 0-5.967-2.387 8.752 8.752 0 1 0 0 17.5 7.631 7.631 0 0 0 6.1-2.519 7.982 7.982 0 0 0 2.122-5.569 4.969 4.969 0 0 0-.133-1.459zm60.2 1.857a5.152 5.152 0 0 0-4.774-3.58 5.34 5.34 0 0 0-5.3 5.7 5.549 5.549 0 0 0 5.569 5.7 5.439 5.439 0 0 0 4.641-2.519L987 350.456a3.232 3.232 0 0 1-2.784 1.591 2.877 2.877 0 0 1-2.785-1.724l7.558-3.182-.265-.663zm-7.691 1.856a3.221 3.221 0 0 1 2.917-3.315 2.345 2.345 0 0 1 2.121 1.193l-5.039 2.122zm-6.232 5.436h2.519V337.2H974.8zm-3.978-9.68a4.365 4.365 0 0 0-3.05-1.326 5.7 5.7 0 0 0-5.437 5.7 5.491 5.491 0 0 0 5.437 5.569 3.807 3.807 0 0 0 2.917-1.326h.133v.8c0 2.122-1.193 3.315-3.05 3.315a2.946 2.946 0 0 1-2.785-1.989l-2.121.928a5.47 5.47 0 0 0 5.039 3.315c2.917 0 5.3-1.724 5.3-5.834v-10.082h-2.387v.928zm-2.917 7.823a3.459 3.459 0 0 1 0-6.9 3.473 3.473 0 0 1 0 6.9zm32.354-14.718h-5.967v16.575h2.519v-6.232h3.448a5.178 5.178 0 1 0 0-10.343zm.133 7.956h-3.58v-5.7h3.58a2.913 2.913 0 0 1 2.917 2.785 3.035 3.035 0 0 1-2.917 2.917zm15.249-2.387a4.457 4.457 0 0 0-4.376 2.519l2.254.928a2.342 2.342 0 0 1 2.254-1.193 2.492 2.492 0 0 1 2.652 2.122v.133a5.26 5.26 0 0 0-2.52-.663c-2.387 0-4.773 1.326-4.773 3.713a3.885 3.885 0 0 0 4.11 3.713 3.732 3.732 0 0 0 3.182-1.591h.133v1.326h2.387v-6.365a5.018 5.018 0 0 0-5.3-4.641zm-.265 9.149c-.8 0-1.989-.4-1.989-1.459 0-1.326 1.458-1.724 2.652-1.724a5.128 5.128 0 0 1 2.254.53 3.088 3.088 0 0 1-2.919 2.652zm13.923-8.751l-2.785 7.16h-.133l-2.917-7.16h-2.652l4.376 10.077-2.519 5.569h2.519l6.763-15.647zm-22.277 10.608h2.52V337.2h-2.52z" data-name="Path 3113" transform="translate(-822.882 -301.214)"/>
    <g id="Group_797" data-name="Group 797" transform="translate(55.654 22.255)">
        <path id="Path_3114" fill="url(#linear-gradient)" d="M528.841 215.829a2.592 2.592 0 0 0-.53 1.856v29.3a2.623 2.623 0 0 0 .663 1.856l.133.133 16.442-16.442v-.265z" data-name="Path 3114" transform="translate(-528.311 -215.361)"/>
        <path id="Path_3115" fill="url(#linear-gradient-2)" d="M696.123 331.574l-5.437-5.436v-.4l5.437-5.436.133.133 6.5 3.713c1.856 1.061 1.856 2.785 0 3.845z" data-name="Path 3115" transform="translate(-673.581 -308.829)"/>
        <path id="Path_3116" fill="url(#linear-gradient-3)" d="M555.49 378.738l-5.569-5.569-16.575 16.575c.663.663 1.591.663 2.785.133l19.359-11.138" data-name="Path 3116" transform="translate(-532.816 -356.126)"/>
        <path id="Path_3117" fill="url(#linear-gradient-4)" d="M555.49 223.133l-19.359-11.006a2.149 2.149 0 0 0-2.785.133l16.575 16.44 5.569-5.569z" data-name="Path 3117" transform="translate(-532.816 -211.659)"/>
        <path id="Path_3118" d="M555.357 424.777l-19.226 10.873a2.168 2.168 0 0 1-2.652 0l-.133.133.133.133a2.168 2.168 0 0 0 2.652 0z" data-name="Path 3118" transform="translate(-532.816 -402.298)" style="isolation:isolate" opacity="0.2"/>
        <path id="Path_3119" d="M528.841 389.479a2.592 2.592 0 0 1-.53-1.856v.133a2.623 2.623 0 0 0 .663 1.856v-.133zm28.641-14.586l-6.63 3.713.133.133 6.5-3.713a2.2 2.2 0 0 0 1.326-1.856c-.002.662-.533 1.192-1.328 1.723z" data-name="Path 3119" transform="translate(-528.311 -356.126)" style="isolation:isolate" opacity="0.12"/>
        <path id="Path_3120" fill="#fff" d="M531.626 211.988l25.857 14.718c.8.53 1.326 1.061 1.326 1.724a2.2 2.2 0 0 0-1.326-1.856l-25.857-14.718c-1.856-1.061-3.315-.265-3.315 1.856v.133c0-1.989 1.459-2.917 3.315-1.857z" data-name="Path 3120" transform="translate(-528.311 -211.388)" style="isolation:isolate" opacity="0.25"/>
    </g>
</svg>
