<svg xmlns="http://www.w3.org/2000/svg" id="lifebuoy" width="59.348" height="59.348" viewBox="0 0 59.348 59.348">
    <defs>
        <style>
            .cls-2{fill:#d8dce5}.cls-3{fill:#ff5050}.cls-4{fill:#f24040}
        </style>
    </defs>
    <path id="Path_2666" fill="#e4eaf8" d="M29.674 0a29.674 29.674 0 1 0 29.674 29.674A29.674 29.674 0 0 0 29.674 0zm-.014 47.428a17.754 17.754 0 1 1 17.753-17.754 17.754 17.754 0 0 1-17.754 17.754z" data-name="Path 2666"/>
    <g id="Group_595" data-name="Group 595" transform="translate(0 .002)">
        <path id="Path_2667" d="M266.041 138.307a17.753 17.753 0 1 0 0-35.428 17.753 17.753 0 0 1 0 35.428z" class="cls-2" data-name="Path 2667" transform="translate(-235.203 -90.922)"/>
        <path id="Path_2668" d="M2.357 29.69A29.673 29.673 0 0 1 30.852.042a29.672 29.672 0 1 0 0 59.3A29.673 29.673 0 0 1 2.357 29.69z" class="cls-2" data-name="Path 2668" transform="translate(0 -.019)"/>
    </g>
    <path id="Path_2669" d="M316.375 25.011a2.175 2.175 0 0 0-2.749.269l-8.818 8.82a2.176 2.176 0 0 0 .587 3.494 15.637 15.637 0 0 1 7.2 7.2 2.176 2.176 0 0 0 3.494.587l8.817-8.817a2.175 2.175 0 0 0 .269-2.749 32.2 32.2 0 0 0-8.8-8.804z" class="cls-3" data-name="Path 2669" transform="translate(-268.914 -21.786)"/>
    <path id="Path_2670" d="M317.3 99.7a2.279 2.279 0 0 1-1.672-1.251 16.386 16.386 0 0 0-7.543-7.543 2.276 2.276 0 0 1-1.2-2.672l-2.083 2.083a2.176 2.176 0 0 0 .587 3.494 15.637 15.637 0 0 1 7.2 7.2 2.176 2.176 0 0 0 3.494.587l1.884-1.884a2.279 2.279 0 0 1-.667-.014z" class="cls-4" data-name="Path 2670" transform="translate(-268.914 -78.009)"/>
    <path id="Path_2671" d="M32.6 25.011a32.334 32.334 0 0 0-8.8 8.8 2.175 2.175 0 0 0 .269 2.749l8.817 8.817a2.177 2.177 0 0 0 3.494-.587 15.634 15.634 0 0 1 7.2-7.2 2.175 2.175 0 0 0 .59-3.49l-8.817-8.82a2.175 2.175 0 0 0-2.753-.269z" class="cls-3" data-name="Path 2671" transform="translate(-20.72 -21.786)"/>
    <path id="Path_2672" d="M26.24 36.431a33.041 33.041 0 0 1 8.991-8.991 2.221 2.221 0 0 1 2.066-.215l-1.945-1.945a2.175 2.175 0 0 0-2.749-.268 32.333 32.333 0 0 0-8.8 8.8 2.175 2.175 0 0 0 .269 2.749l1.963 1.963a2.222 2.222 0 0 1 .205-2.093z" class="cls-4" data-name="Path 2672" transform="translate(-20.719 -21.786)"/>
    <path id="Path_2673" d="M32.6 326.375a32.334 32.334 0 0 1-8.8-8.8 2.175 2.175 0 0 1 .269-2.749l8.817-8.817a2.176 2.176 0 0 1 3.494.587 15.634 15.634 0 0 0 7.2 7.2 2.176 2.176 0 0 1 .587 3.494l-8.817 8.817a2.175 2.175 0 0 1-2.75.268z" class="cls-3" data-name="Path 2673" transform="translate(-20.72 -269.977)"/>
    <path id="Path_2674" d="M26.24 372.092a33.041 33.041 0 0 0 8.991 8.991 2.221 2.221 0 0 0 2.066.215l-1.945 1.945a2.175 2.175 0 0 1-2.749.268 32.333 32.333 0 0 1-8.8-8.8 2.175 2.175 0 0 1 .269-2.749L26.036 370a2.222 2.222 0 0 0 .204 2.092z" class="cls-4" data-name="Path 2674" transform="translate(-20.719 -327.113)"/>
    <path id="Path_2675" d="M316.375 326.378a2.175 2.175 0 0 1-2.749-.269l-8.817-8.817a2.176 2.176 0 0 1 .587-3.494 15.637 15.637 0 0 0 7.2-7.2 2.176 2.176 0 0 1 3.494-.587l8.817 8.817a2.175 2.175 0 0 1 .269 2.749 32.2 32.2 0 0 1-8.801 8.801z" class="cls-3" data-name="Path 2675" transform="translate(-268.914 -269.98)"/>
    <path id="Path_2676" d="M317.3 307.909a2.279 2.279 0 0 0-1.672 1.251 16.386 16.386 0 0 1-7.543 7.543 2.276 2.276 0 0 0-1.2 2.672l-2.083-2.083a2.176 2.176 0 0 1 .587-3.494 15.636 15.636 0 0 0 7.2-7.2 2.176 2.176 0 0 1 3.494-.587l1.884 1.884a2.278 2.278 0 0 0-.667.014z" class="cls-4" data-name="Path 2676" transform="translate(-268.914 -269.979)"/>
</svg>
