<svg xmlns="http://www.w3.org/2000/svg" width="72.091" height="61.108" viewBox="0 0 72.091 61.108">
    <defs>
        <style>
            .cls-5{fill:#ffdfba}.cls-7{fill:#42434d}.cls-8{fill:#ffebd2}.cls-9{fill:#fff}.cls-10{fill:#fff3e4}.cls-11{fill:#ffd6a6}.cls-12{fill:#1771ff}.cls-13{fill:#4d4e59}.cls-15{fill:#91a919}
        </style>
    </defs>
    <g id="search_1_" data-name="search (1)" transform="translate(-3.542 -63.814)">
        <path id="Path_2646" fill="#ff2828" d="M315.815 240.647l18.057 18.038a6.95 6.95 0 0 1-4.916 11.852c-3.839 0-3.419-.541-22.91-20.011a2.213 2.213 0 0 1 0-3.134c.809-.808 5.732-5.847 6.632-6.746a2.221 2.221 0 0 1 3.137.001z" data-name="Path 2646" transform="translate(-260.284 -148.921)"/>
        <path id="Path_2647" fill="#c00" d="M337.923 240.647l18.057 18.038a6.947 6.947 0 0 1 0 9.819c-.2.2 1.739 2.006-24.644-24.348 1.485-1.515 3-3.063 3.45-3.509a2.221 2.221 0 0 1 3.137 0z" data-name="Path 2647" transform="translate(-282.392 -148.921)"/>
        <path id="Path_2648" fill="#ecf9fd" d="M165.781 75.559a18.955 18.955 0 1 1-26.821 0 18.951 18.951 0 0 1 26.821 0z" data-name="Path 2648" transform="translate(-113.706 -4.052)"/>
        <path id="Path_2649" fill="#d9f3fc" d="M197.664 75.559a18.951 18.951 0 0 1-.029 26.822C169.532 74.307 170.8 75.6 170.844 75.559a19 19 0 0 1 26.82 0z" data-name="Path 2649" transform="translate(-145.59 -4.052)"/>
        <g id="person" transform="translate(-67.78 101.839)">
            <path id="Path_2656" d="M92.107 19.052v1.795a.366.366 0 0 1-.366.366H78.394a.366.366 0 0 1-.366-.366v-1.795a3.409 3.409 0 0 1 3.41-3.409 1.893 1.893 0 0 0 1.589-.862 2.149 2.149 0 0 0 .3-1.34l.007-.017a4.526 4.526 0 0 1-2.8-4.183V9.1A1.127 1.127 0 0 1 79.4 7.977v-1.9a6.327 6.327 0 0 1 1.7-4.618c1.959-1.888 5.064-1.734 7.313-.723a.092.092 0 0 1 0 .168l-.586.241a.091.091 0 0 0 .025.176l.285.031a4.614 4.614 0 0 1 3.411 2.118.1.1 0 0 1-.012.113 2.766 2.766 0 0 0-.755 1.9v2.494A1.122 1.122 0 0 1 89.66 9.1h-.067v.143a4.526 4.526 0 0 1-2.8 4.183l.007.017a2.148 2.148 0 0 0 .3 1.34 1.893 1.893 0 0 0 1.589.862 3.409 3.409 0 0 1 3.418 3.407z" class="cls-5" data-name="Path 2656"/>
            <path id="Path_2657" fill="#26a8ff" d="M92.107 327.637v1.795a.366.366 0 0 1-.366.366H78.394a.366.366 0 0 1-.366-.366v-1.795a3.409 3.409 0 0 1 3.409-3.409 1.893 1.893 0 0 0 1.589-.862 3.138 3.138 0 0 0 4.082 0 1.893 1.893 0 0 0 1.589.862 3.409 3.409 0 0 1 3.41 3.409z" data-name="Path 2657" transform="translate(0 -308.585)"/>
            <path id="Path_2658" d="M120.138 3.471a.1.1 0 0 1-.012.112 2.767 2.767 0 0 0-.755 1.9v2.495a1.124 1.124 0 0 1-1.188 1.122V6.276a2.194 2.194 0 0 0-2.194-2.194h-4.662a2.194 2.194 0 0 0-2.194 2.194V9.1a1.127 1.127 0 0 1-1.143-1.122v-1.9a6.327 6.327 0 0 1 1.7-4.618c1.959-1.889 5.064-1.734 7.31-.724a.092.092 0 0 1 0 .164l-.587.241a.091.091 0 0 0 .025.175l.285.031a4.612 4.612 0 0 1 3.415 2.119z" class="cls-7" data-name="Path 2658" transform="translate(-28.59 -.001)"/>
            <path id="Path_2659" d="M142.079 94.447a4.526 4.526 0 1 1-9.051-.143V91.48a2.194 2.194 0 0 1 2.194-2.194h4.662a2.194 2.194 0 0 1 2.194 2.194z" class="cls-8" data-name="Path 2659" transform="translate(-52.486 -85.205)"/>
            <path id="Path_2660" d="M282.491 431.787h-1.1a.366.366 0 0 1 0-.731h1.1a.366.366 0 1 1 0 .731z" class="cls-9" data-name="Path 2660" transform="translate(-193.721 -411.352)"/>
            <path id="Path_2661" d="M136.529 112.306a.723.723 0 0 1-.657 1.28 4.526 4.526 0 0 1-2.844-4.2v-2.967a2.184 2.184 0 0 1 .385-1.242.54.54 0 0 1 .986.328v2.967a4.492 4.492 0 0 0 2.13 3.834z" class="cls-10" data-name="Path 2661" transform="translate(-52.486 -100.142)"/>
            <path id="Path_2662" d="M196.475 294.453a4.538 4.538 0 0 1-3.577 0 2.833 2.833 0 0 0 .052-.751l.007-.017a4.535 4.535 0 0 0 3.46 0l.007.017a2.832 2.832 0 0 0 .051.751z" class="cls-11" data-name="Path 2662" transform="translate(-109.619 -280.262)"/>
            <path id="Path_2663" d="M83.279 325.332a1.861 1.861 0 0 1-.545.084 3.418 3.418 0 0 0-3.427 3.4v.344a.64.64 0 0 1-.64.64h-.274a.366.366 0 0 1-.366-.366v-1.795a3.409 3.409 0 0 1 3.409-3.409 1.893 1.893 0 0 0 1.589-.862 3.165 3.165 0 0 0 .435.312.913.913 0 0 1-.181 1.652z" class="cls-12" data-name="Path 2663" transform="translate(0 -308.585)"/>
            <path id="Path_2664" d="M257.991 325.332a1.861 1.861 0 0 0 .545.084 3.418 3.418 0 0 1 3.427 3.4v.344a.64.64 0 0 0 .64.64h.274a.366.366 0 0 0 .366-.366v-1.795a3.409 3.409 0 0 0-3.409-3.409 1.893 1.893 0 0 1-1.589-.862 3.163 3.163 0 0 1-.435.312.913.913 0 0 0 .181 1.652z" class="cls-12" data-name="Path 2664" transform="translate(-171.135 -308.585)"/>
            <path id="Path_2665" d="M117 .9c-.537.221-.614.27-.8.241-3-.465-5.636.777-6.53 3.693a2.183 2.183 0 0 0-.537 1.437v1.72a.571.571 0 1 1-1.143-.013v-1.9a6.327 6.327 0 0 1 1.7-4.618c1.959-1.889 5.063-1.735 7.31-.724a.092.092 0 0 1 0 .164z" class="cls-13" data-name="Path 2665" transform="translate(-28.59)"/>
        </g>
        <g id="person-2" data-name="person" transform="translate(-50.78 108.557)">
            <path id="Path_2656-2" d="M87.649 13.019v1.226a.25.25 0 0 1-.25.25h-9.121a.25.25 0 0 1-.25-.25v-1.226a2.33 2.33 0 0 1 2.33-2.329 1.293 1.293 0 0 0 1.086-.589 1.468 1.468 0 0 0 .208-.916v-.012a3.093 3.093 0 0 1-1.91-2.858v-.1a.77.77 0 0 1-.781-.767v-1.3A4.324 4.324 0 0 1 80.127 1a4.6 4.6 0 0 1 5-.494.063.063 0 0 1 0 .115l-.4.165a.063.063 0 0 0 .017.12l.195.021a3.153 3.153 0 0 1 2.334 1.448.067.067 0 0 1-.008.077 1.89 1.89 0 0 0-.516 1.3v1.7a.767.767 0 0 1-.767.767h-.046v.1a3.093 3.093 0 0 1-1.91 2.858v.012a1.468 1.468 0 0 0 .208.916 1.293 1.293 0 0 0 1.086.589 2.33 2.33 0 0 1 2.329 2.325z" class="cls-5" data-name="Path 2656"/>
            <path id="Path_2657-2" fill="#abc720" d="M87.649 326.284v1.226a.25.25 0 0 1-.25.25h-9.121a.25.25 0 0 1-.25-.25v-1.226a2.33 2.33 0 0 1 2.33-2.329 1.293 1.293 0 0 0 1.086-.589 2.144 2.144 0 0 0 2.789 0 1.293 1.293 0 0 0 1.086.589 2.33 2.33 0 0 1 2.33 2.329z" data-name="Path 2657" transform="translate(0 -313.266)"/>
            <path id="Path_2658-2" d="M116.29 2.372a.066.066 0 0 1-.008.077 1.891 1.891 0 0 0-.516 1.3v1.7a.768.768 0 0 1-.812.767V4.289a1.5 1.5 0 0 0-1.5-1.5h-3.186a1.5 1.5 0 0 0-1.5 1.5v1.929a.77.77 0 0 1-.781-.767v-1.3A4.324 4.324 0 0 1 109.15 1a4.6 4.6 0 0 1 5-.494.063.063 0 0 1 0 .115l-.4.165a.062.062 0 0 0 .017.12l.195.021a3.151 3.151 0 0 1 2.334 1.448z" class="cls-7" data-name="Path 2658" transform="translate(-29.023 -.001)"/>
            <path id="Path_2659-2" d="M139.213 92.813a3.093 3.093 0 1 1-6.185-.1v-1.928a1.5 1.5 0 0 1 1.5-1.5h3.186a1.5 1.5 0 0 1 1.5 1.5z" class="cls-8" data-name="Path 2659" transform="translate(-53.282 -86.497)"/>
            <path id="Path_2660-2" d="M282.028 431.556h-.75a.25.25 0 0 1 0-.5h.75a.25.25 0 0 1 0 .5z" class="cls-9" data-name="Path 2660" transform="translate(-196.659 -417.592)"/>
            <path id="Path_2661-2" d="M135.42 109.973a.494.494 0 0 1-.449.875 3.093 3.093 0 0 1-1.943-2.872v-2.027a1.493 1.493 0 0 1 .263-.849.369.369 0 0 1 .674.224v2.027a3.07 3.07 0 0 0 1.455 2.622z" class="cls-10" data-name="Path 2661" transform="translate(-53.282 -101.661)"/>
            <path id="Path_2662-2" d="M195.342 294.21a3.1 3.1 0 0 1-2.445 0 1.936 1.936 0 0 0 .035-.513v-.012a3.1 3.1 0 0 0 2.365 0v.012a1.935 1.935 0 0 0 .045.513z" class="cls-11" data-name="Path 2662" transform="translate(-111.282 -284.513)"/>
            <path id="Path_2663-2" d="M81.616 324.71a1.273 1.273 0 0 1-.372.057 2.336 2.336 0 0 0-2.342 2.321v.235a.437.437 0 0 1-.437.437h-.187a.25.25 0 0 1-.25-.25v-1.226a2.33 2.33 0 0 1 2.33-2.329 1.293 1.293 0 0 0 1.086-.589 2.161 2.161 0 0 0 .3.213.624.624 0 0 1-.128 1.131z" class="cls-15" data-name="Path 2663" transform="translate(0 -313.266)"/>
            <path id="Path_2664-2" d="M257.791 324.71a1.273 1.273 0 0 0 .372.057 2.336 2.336 0 0 1 2.342 2.321v.235a.437.437 0 0 0 .437.437h.187a.25.25 0 0 0 .25-.25v-1.226a2.33 2.33 0 0 0-2.33-2.329 1.293 1.293 0 0 1-1.086-.589 2.159 2.159 0 0 1-.3.213.624.624 0 0 0 .128 1.131z" class="cls-15" data-name="Path 2664" transform="translate(-173.731 -313.266)"/>
            <path id="Path_2665-2" d="M114.145.618c-.367.151-.42.184-.547.165a3.73 3.73 0 0 0-4.462 2.523 1.492 1.492 0 0 0-.367.982V5.46a.391.391 0 1 1-.781-.009v-1.3A4.324 4.324 0 0 1 109.15 1a4.6 4.6 0 0 1 5-.494.063.063 0 0 1 0 .115z" class="cls-13" data-name="Path 2665" transform="translate(-29.023)"/>
        </g>
        <g id="person-3" data-name="person" transform="translate(-37.78 108.557)">
            <path id="Path_2656-3" d="M87.649 13.019v1.226a.25.25 0 0 1-.25.25h-9.121a.25.25 0 0 1-.25-.25v-1.226a2.33 2.33 0 0 1 2.33-2.329 1.293 1.293 0 0 0 1.086-.589 1.468 1.468 0 0 0 .208-.916v-.012a3.093 3.093 0 0 1-1.91-2.858v-.1a.77.77 0 0 1-.781-.767v-1.3A4.324 4.324 0 0 1 80.127 1a4.6 4.6 0 0 1 5-.494.063.063 0 0 1 0 .115l-.4.165a.063.063 0 0 0 .017.12l.195.021a3.153 3.153 0 0 1 2.334 1.448.067.067 0 0 1-.008.077 1.89 1.89 0 0 0-.516 1.3v1.7a.767.767 0 0 1-.767.767h-.046v.1a3.093 3.093 0 0 1-1.91 2.858v.012a1.468 1.468 0 0 0 .208.916 1.293 1.293 0 0 0 1.086.589 2.33 2.33 0 0 1 2.329 2.325z" class="cls-5" data-name="Path 2656"/>
            <path id="Path_2657-3" fill="#fe4f60" d="M87.649 326.284v1.226a.25.25 0 0 1-.25.25h-9.121a.25.25 0 0 1-.25-.25v-1.226a2.33 2.33 0 0 1 2.33-2.329 1.293 1.293 0 0 0 1.086-.589 2.144 2.144 0 0 0 2.789 0 1.293 1.293 0 0 0 1.086.589 2.33 2.33 0 0 1 2.33 2.329z" data-name="Path 2657" transform="translate(0 -313.266)"/>
            <path id="Path_2658-3" d="M116.29 2.372a.066.066 0 0 1-.008.077 1.891 1.891 0 0 0-.516 1.3v1.7a.768.768 0 0 1-.812.767V4.289a1.5 1.5 0 0 0-1.5-1.5h-3.186a1.5 1.5 0 0 0-1.5 1.5v1.929a.77.77 0 0 1-.781-.767v-1.3A4.324 4.324 0 0 1 109.15 1a4.6 4.6 0 0 1 5-.494.063.063 0 0 1 0 .115l-.4.165a.062.062 0 0 0 .017.12l.195.021a3.151 3.151 0 0 1 2.334 1.448z" class="cls-7" data-name="Path 2658" transform="translate(-29.023 -.001)"/>
            <path id="Path_2659-3" d="M139.213 92.813a3.093 3.093 0 1 1-6.185-.1v-1.928a1.5 1.5 0 0 1 1.5-1.5h3.186a1.5 1.5 0 0 1 1.5 1.5z" class="cls-8" data-name="Path 2659" transform="translate(-53.282 -86.497)"/>
            <path id="Path_2660-3" d="M282.028 431.556h-.75a.25.25 0 0 1 0-.5h.75a.25.25 0 0 1 0 .5z" class="cls-9" data-name="Path 2660" transform="translate(-196.659 -417.592)"/>
            <path id="Path_2661-3" d="M135.42 109.973a.494.494 0 0 1-.449.875 3.093 3.093 0 0 1-1.943-2.872v-2.027a1.493 1.493 0 0 1 .263-.849.369.369 0 0 1 .674.224v2.027a3.07 3.07 0 0 0 1.455 2.622z" class="cls-10" data-name="Path 2661" transform="translate(-53.282 -101.661)"/>
            <path id="Path_2662-3" d="M195.342 294.21a3.1 3.1 0 0 1-2.445 0 1.936 1.936 0 0 0 .035-.513v-.012a3.1 3.1 0 0 0 2.365 0v.012a1.935 1.935 0 0 0 .045.513z" class="cls-11" data-name="Path 2662" transform="translate(-111.282 -284.513)"/>
            <path id="Path_2663-3" fill="#ff6d7a" d="M81.616 324.71a1.273 1.273 0 0 1-.372.057 2.336 2.336 0 0 0-2.342 2.321v.235a.437.437 0 0 1-.437.437h-.187a.25.25 0 0 1-.25-.25v-1.226a2.33 2.33 0 0 1 2.33-2.329 1.293 1.293 0 0 0 1.086-.589 2.161 2.161 0 0 0 .3.213.624.624 0 0 1-.128 1.131z" data-name="Path 2663" transform="translate(0 -313.266)"/>
            <path id="Path_2664-3" fill="#e84857" d="M257.791 324.71a1.273 1.273 0 0 0 .372.057 2.336 2.336 0 0 1 2.342 2.321v.235a.437.437 0 0 0 .437.437h.187a.25.25 0 0 0 .25-.25v-1.226a2.33 2.33 0 0 0-2.33-2.329 1.293 1.293 0 0 1-1.086-.589 2.159 2.159 0 0 1-.3.213.624.624 0 0 0 .128 1.131z" data-name="Path 2664" transform="translate(-173.731 -313.266)"/>
            <path id="Path_2665-3" d="M114.145.618c-.367.151-.42.184-.547.165a3.73 3.73 0 0 0-4.462 2.523 1.492 1.492 0 0 0-.367.982V5.46a.391.391 0 1 1-.781-.009v-1.3A4.324 4.324 0 0 1 109.15 1a4.6 4.6 0 0 1 5-.494.063.063 0 0 1 0 .115z" class="cls-13" data-name="Path 2665" transform="translate(-29.023)"/>
        </g>
        <path id="Path_2650" fill="#00357b" d="M162.107 71.012a19.7 19.7 0 0 0-27.845.03c-12.33 12.371-3.472 33.5 13.937 33.5 17.376 0 26.34-21.112 13.908-33.53zm-3.137 24.651a15.223 15.223 0 1 1 0-21.518 15.26 15.26 0 0 1 0 21.518z" data-name="Path 2650" transform="translate(-109.536 -.001)"/>
        <path id="Path_2651" fill="#001737" d="M195.236 71.011a19.656 19.656 0 0 1 0 27.785c-.047.047.211.271-3.167-3.1a15.223 15.223 0 1 0-21.51-21.548c-.047.047.211.271-3.167-3.1a19.7 19.7 0 0 1 27.844-.037z" data-name="Path 2651" transform="translate(-142.664)"/>
        <g id="Group_594" data-name="Group 594" transform="translate(0 86.654)">
            <path id="Path_2655" fill="#fd3400" d="M73.908 402.059h-70.7c-4.275 0-4.281 4.432 0 4.432h70.7c4.274 0 4.28-4.432 0-4.432z" data-name="Path 2655" transform="rotate(-49 -400.395 214.78)"/>
        </g>
    </g>
</svg>
