<svg xmlns="http://www.w3.org/2000/svg" width="42.889" height="40.995" viewBox="0 0 42.889 40.995">
    <defs>
        <style>
            .cls-1{fill:#006fad}
        </style>
    </defs>
    <g id="Group_537" data-name="Group 537">
        <path id="Path_728" d="M26.18 34.632c-3.145 0-5.2 2.065-5.2 4.779a4.759 4.759 0 0 0 5.08 4.779h.06c3.206 0 5.2-2.124 5.2-4.778a4.778 4.778 0 0 0-5.14-4.78z" class="cls-1" data-name="Path 728" transform="translate(-20.979 -34.632)"/>
        <path id="Path_729" d="M29.081 233.418h9.194v27.661h-9.194z" class="cls-1" data-name="Path 729" transform="translate(-28.538 -220.083)"/>
        <path id="Path_730" d="M259.458 223.74c-4.96 0-8.286 4.661-8.286 4.661v-4.011h-9.194v27.66h9.194V236.6a6.3 6.3 0 0 1 .3-2.244 5.032 5.032 0 0 1 4.72-3.356c3.327 0 4.657 2.537 4.657 6.255v14.8h9.193V236.19c.001-8.496-4.535-12.45-10.584-12.45z" class="cls-1" data-name="Path 730" transform="translate(-227.153 -211.055)"/>
    </g>
</svg>
