<svg xmlns="http://www.w3.org/2000/svg" width="263" height="78" viewBox="0 0 263 78">
    <defs>
        <style>
            .cls-2{fill:#fff}
        </style>
    </defs>
    <g id="Apple" transform="translate(.391 .485)">
        <rect id="Rectangle_805" width="263" height="78" fill="#a6a6a6" data-name="Rectangle 805" rx="39" transform="translate(-.391 -.485)"/>
        <rect id="Rectangle_806" width="259.596" height="74.496" data-name="Rectangle 806" rx="37.248" transform="translate(1.466 1.739)"/>
        <path id="Path_3109" d="M589.959 221.139a7.619 7.619 0 0 1 3.629-6.393 7.8 7.8 0 0 0-6.146-3.323c-2.585-.272-5.093 1.547-6.41 1.547-1.343 0-3.371-1.521-5.557-1.476a8.183 8.183 0 0 0-6.887 4.2c-2.978 5.156-.757 12.734 2.1 16.9 1.427 2.043 3.1 4.32 5.279 4.24 2.136-.087 2.934-1.36 5.511-1.36 2.554 0 3.3 1.36 5.529 1.309 2.292-.035 3.735-2.05 5.113-4.11a16.856 16.856 0 0 0 2.338-4.762 7.371 7.371 0 0 1-4.5-6.774zm-4.206-12.458a7.5 7.5 0 0 0 1.717-5.374 7.64 7.64 0 0 0-4.94 2.555 7.137 7.137 0 0 0-1.761 5.176 6.31 6.31 0 0 0 4.984-2.357z" class="cls-2" data-name="Path 3109" transform="translate(-507.761 -181.914)"/>
        <g id="Group_794" data-name="Group 794" transform="translate(98.368 36.88)">
            <path id="Path_3110" d="M952.144 368.226h-2.985l-1.635-5.138h-5.684l-1.557 5.138h-2.906l5.632-17.492h3.478l5.657 17.492zm-5.113-7.293l-1.479-4.567q-.235-.7-.882-3.3h-.052q-.26 1.116-.831 3.3l-1.454 4.567zm19.568.832a7.143 7.143 0 0 1-1.748 5.085 5.126 5.126 0 0 1-3.888 1.661 3.892 3.892 0 0 1-3.6-1.789v6.618h-2.8v-13.581q0-2.021-.1-4.146h2.464l.156 2h.052a4.985 4.985 0 0 1 7.98-.5 6.975 6.975 0 0 1 1.49 4.648zm-2.855.1a5.2 5.2 0 0 0-.831-3.037 2.871 2.871 0 0 0-2.439-1.245 2.914 2.914 0 0 0-1.881.687 3.188 3.188 0 0 0-1.1 1.8 3.664 3.664 0 0 0-.13.853v2.1a3.375 3.375 0 0 0 .844 2.324 2.8 2.8 0 0 0 2.193.948 2.872 2.872 0 0 0 2.464-1.22 5.37 5.37 0 0 0 .883-3.219zm17.362-.1a7.143 7.143 0 0 1-1.748 5.085 5.129 5.129 0 0 1-3.889 1.661 3.892 3.892 0 0 1-3.6-1.789v6.618h-2.8v-13.581q0-2.021-.1-4.146h2.465l.156 2h.053a4.986 4.986 0 0 1 7.981-.5 6.981 6.981 0 0 1 1.491 4.648zm-2.856.1a5.2 5.2 0 0 0-.832-3.037 2.866 2.866 0 0 0-2.437-1.245 2.926 2.926 0 0 0-1.884.687 3.187 3.187 0 0 0-1.1 1.8 3.744 3.744 0 0 0-.131.853v2.1a3.386 3.386 0 0 0 .842 2.324 2.807 2.807 0 0 0 2.2.948 2.869 2.869 0 0 0 2.464-1.22 5.368 5.368 0 0 0 .883-3.219zm19.076 1.452a4.673 4.673 0 0 1-1.555 3.634 6.892 6.892 0 0 1-4.765 1.531 8.317 8.317 0 0 1-4.529-1.09l.648-2.336a7.8 7.8 0 0 0 4.048 1.091 3.82 3.82 0 0 0 2.464-.714 2.332 2.332 0 0 0 .885-1.906 2.443 2.443 0 0 0-.728-1.791 6.75 6.75 0 0 0-2.413-1.349q-4.594-1.713-4.6-5.01a4.423 4.423 0 0 1 1.622-3.529 6.413 6.413 0 0 1 4.3-1.376 8.488 8.488 0 0 1 3.971.831l-.7 2.284a6.942 6.942 0 0 0-3.361-.8 3.418 3.418 0 0 0-2.319.727 2.08 2.08 0 0 0-.7 1.585 2.143 2.143 0 0 0 .806 1.713 9.079 9.079 0 0 0 2.542 1.349 8.62 8.62 0 0 1 3.322 2.127 4.432 4.432 0 0 1 1.069 3.033zm9.289-5.6h-3.089v6.124q0 2.336 1.635 2.334a4.926 4.926 0 0 0 1.245-.13l.077 2.128a6.345 6.345 0 0 1-2.179.31 3.358 3.358 0 0 1-2.6-1.013 4.969 4.969 0 0 1-.934-3.4v-6.358h-1.84v-2.1h1.84V353.3l2.752-.831v3.14h3.089v2.108zm13.908 4.1a6.919 6.919 0 0 1-1.661 4.775 5.922 5.922 0 0 1-4.619 1.92 5.645 5.645 0 0 1-4.425-1.84 6.708 6.708 0 0 1-1.648-4.645 6.862 6.862 0 0 1 1.7-4.8 5.891 5.891 0 0 1 4.582-1.869 5.763 5.763 0 0 1 4.462 1.843 6.621 6.621 0 0 1 1.61 4.616zm-2.9.064a5.647 5.647 0 0 0-.75-2.976 2.774 2.774 0 0 0-2.518-1.5 2.814 2.814 0 0 0-2.57 1.5 5.742 5.742 0 0 0-.752 3.028 5.633 5.633 0 0 0 .752 2.977 2.874 2.874 0 0 0 5.064-.025 5.67 5.67 0 0 0 .769-3.004zm12.017-3.8a4.867 4.867 0 0 0-.883-.078 2.644 2.644 0 0 0-2.284 1.117 4.208 4.208 0 0 0-.7 2.491v6.618h-2.8v-8.641q0-2.179-.081-3.971h2.441l.1 2.413h.078a4.328 4.328 0 0 1 1.4-2 3.389 3.389 0 0 1 2.025-.676 4.49 4.49 0 0 1 .7.051zm12.532 3.245a6.569 6.569 0 0 1-.1 1.271h-8.407a3.659 3.659 0 0 0 1.22 2.857 4.171 4.171 0 0 0 2.75.881 9.3 9.3 0 0 0 3.4-.6l.439 1.944a10.514 10.514 0 0 1-4.228.779 6.13 6.13 0 0 1-4.608-1.724 6.375 6.375 0 0 1-1.673-4.632 7.225 7.225 0 0 1 1.559-4.747 5.371 5.371 0 0 1 4.41-2.023 4.7 4.7 0 0 1 4.128 2.023 6.807 6.807 0 0 1 1.112 3.967zm-2.672-.727a3.8 3.8 0 0 0-.544-2.154 2.448 2.448 0 0 0-2.232-1.17 2.657 2.657 0 0 0-2.23 1.142 4.186 4.186 0 0 0-.829 2.179z" class="cls-2" data-name="Path 3110" transform="translate(-937.377 -350.476)"/>
        </g>
        <g id="Group_795" data-name="Group 795" transform="translate(99.411 21.835)">
            <path id="Path_3111" d="M954.553 216.547h-1.468l-.8-2.525h-2.793l-.766 2.525h-1.429l2.768-8.6h1.709zm-2.513-3.584l-.727-2.245c-.076-.23-.217-.765-.434-1.619h-.026c-.089.369-.217.906-.409 1.619l-.714 2.245zm9.434-2.614l-2.347 6.2h-1.339l-2.271-6.2H957l1.059 3.278c.179.548.331 1.071.446 1.568h.038c.1-.446.255-.969.446-1.568l1.046-3.278zm5 6.2l-.1-.714h-.038a2.114 2.114 0 0 1-1.811.854 1.8 1.8 0 0 1-1.9-1.824c0-1.53 1.326-2.321 3.622-2.321v-.114c0-.816-.434-1.225-1.288-1.225a2.894 2.894 0 0 0-1.619.46l-.28-.906a3.969 3.969 0 0 1 2.131-.536c1.619 0 2.437.854 2.437 2.564v2.283a9.191 9.191 0 0 0 .089 1.48zm-.192-3.087c-1.531 0-2.3.371-2.3 1.25a.878.878 0 0 0 .944.969 1.318 1.318 0 0 0 1.352-1.262v-.957zm4.41-4.132a.823.823 0 1 1 .868-.829.809.809 0 0 1-.87.826zm.715 7.22h-1.377v-6.2h1.37v6.2zm3.825 0h-1.378v-9.05h1.378v9.043zm5.854 0l-.1-.714h-.038a2.114 2.114 0 0 1-1.811.854 1.8 1.8 0 0 1-1.9-1.824c0-1.53 1.326-2.321 3.622-2.321v-.114c0-.816-.434-1.225-1.288-1.225a2.894 2.894 0 0 0-1.619.46l-.281-.907a3.968 3.968 0 0 1 2.131-.536c1.619 0 2.437.854 2.437 2.564v2.283a9.555 9.555 0 0 0 .088 1.48h-1.237zm-.192-3.087c-1.531 0-2.3.371-2.3 1.25a.878.878 0 0 0 .944.969 1.318 1.318 0 0 0 1.353-1.262zm6.922 3.228a2.1 2.1 0 0 1-1.949-1.1h-.028l-.079.957h-1.174c.038-.5.051-1.059.051-1.671V207.5h1.379v3.751h.026a2.126 2.126 0 0 1 1.977-1.033c1.493 0 2.539 1.276 2.539 3.137 0 1.924-1.162 3.328-2.743 3.328zm-.28-5.384a1.585 1.585 0 0 0-1.518 1.646v1.084a1.518 1.518 0 0 0 1.495 1.556c1.032 0 1.646-.841 1.646-2.181 0-1.25-.64-2.106-1.622-2.106zm6.437 5.243h-1.376v-9.05h1.376zm7.5-2.768h-4.135a1.779 1.779 0 0 0 1.952 1.836 4.65 4.65 0 0 0 1.671-.293l.214.957a5.167 5.167 0 0 1-2.078.383 2.878 2.878 0 0 1-3.097-3.128 3.027 3.027 0 0 1 2.932-3.329c1.581 0 2.577 1.174 2.577 2.947a2.6 2.6 0 0 1-.046.624zm-1.263-.982c0-.957-.485-1.632-1.366-1.632a1.636 1.636 0 0 0-1.506 1.632h2.872zm9.612 3.891a2.95 2.95 0 0 1-2.985-3.189 3.019 3.019 0 0 1 3.089-3.278 2.928 2.928 0 0 1 2.985 3.177 3.038 3.038 0 0 1-3.094 3.287zm.053-5.46c-1 0-1.632.931-1.632 2.232 0 1.276.651 2.207 1.619 2.207s1.618-.995 1.618-2.233c0-1.262-.636-2.205-1.6-2.205zm10.441 5.319h-1.376v-3.559c0-1.1-.421-1.646-1.25-1.646a1.432 1.432 0 0 0-1.379 1.518v3.687h-1.376v-4.43c0-.548-.014-1.136-.051-1.773h1.212l.064.957h.038a2.224 2.224 0 0 1 1.964-1.084c1.3 0 2.154 1 2.154 2.614v3.713zm9.013-5.165h-1.516v3.01q0 1.149.8 1.149a2.728 2.728 0 0 0 .613-.064l.038 1.046a3.069 3.069 0 0 1-1.07.154c-1.086 0-1.734-.6-1.734-2.169v-3.126h-.9v-1.033h.9v-1.136l1.351-.409v1.543h1.516v1.034zm7.295 5.165h-1.379v-3.533c0-1.109-.421-1.671-1.25-1.671a1.349 1.349 0 0 0-1.376 1.467v3.737h-1.379v-9.05h1.379v3.724h.026a2.086 2.086 0 0 1 1.862-1.008c1.313 0 2.116 1.02 2.116 2.641zm7.038-2.768h-4.134a1.777 1.777 0 0 0 1.951 1.836 4.645 4.645 0 0 0 1.671-.293l.216.957a5.175 5.175 0 0 1-2.079.383 2.878 2.878 0 0 1-3.087-3.124 3.027 3.027 0 0 1 2.932-3.329c1.581 0 2.577 1.174 2.577 2.947a2.678 2.678 0 0 1-.046.624zm-1.263-.982c0-.957-.484-1.632-1.364-1.632a1.634 1.634 0 0 0-1.506 1.632z" class="cls-2" data-name="Path 3111" transform="translate(-947.294 -207.504)"/>
        </g>
    </g>
</svg>
