<svg xmlns="http://www.w3.org/2000/svg" id="Group_538" width="40.988" height="40.996" data-name="Group 538" viewBox="0 0 40.988 40.996">
    <defs>
        <style>
            .cls-1{fill:#006fad}
        </style>
    </defs>
    <path id="Path_727" d="M41.783 12.053a14.987 14.987 0 0 0-.953-4.974 10.5 10.5 0 0 0-6-6 15.025 15.025 0 0 0-4.972-.951C27.664.024 26.968 0 21.4 0s-6.262.024-8.449.12a14.988 14.988 0 0 0-4.973.952 10.015 10.015 0 0 0-3.635 2.371 10.094 10.094 0 0 0-2.362 3.629 15 15 0 0 0-.952 4.972C.924 14.239.9 14.936.9 20.5s.024 6.262.12 8.449a14.985 14.985 0 0 0 .954 4.974 10.494 10.494 0 0 0 6 6 15.031 15.031 0 0 0 4.974.953c2.185.1 2.883.12 8.449.12s6.262-.024 8.449-.12a14.978 14.978 0 0 0 4.973-.953 10.484 10.484 0 0 0 6-6 15.031 15.031 0 0 0 .953-4.974c.1-2.186.12-2.883.12-8.449s-.012-6.261-.109-8.447zm-9.434-.04a2.459 2.459 0 1 1 2.459-2.459 2.459 2.459 0 0 1-2.459 2.459zM10.871 20.5A10.531 10.531 0 1 1 21.4 31.033 10.534 10.534 0 0 1 10.871 20.5z" class="cls-1" data-name="Path 727" transform="translate(-.9)"/>
    <circle id="Ellipse_72" cx="5.682" cy="5.682" r="5.682" class="cls-1" data-name="Ellipse 72" transform="translate(15.087 15.247)"/>
</svg>
