<svg xmlns="http://www.w3.org/2000/svg" width="42.889" height="34.847" viewBox="0 0 42.889 34.847">
    <g id="Group_534" data-name="Group 534">
        <g id="Group_533" data-name="Group 533">
            <path id="Path_725" fill="#006fad" d="M42.889 52.125a18.332 18.332 0 0 1-5.066 1.389 8.743 8.743 0 0 0 3.868-4.86 17.572 17.572 0 0 1-5.576 2.128 8.792 8.792 0 0 0-15.21 6.013 9.054 9.054 0 0 0 .2 2.005 24.888 24.888 0 0 1-18.119-9.2 8.8 8.8 0 0 0 2.7 11.752 8.683 8.683 0 0 1-3.973-1.083v.1a8.833 8.833 0 0 0 7.047 8.639 8.776 8.776 0 0 1-2.305.289 7.774 7.774 0 0 1-1.665-.15 8.876 8.876 0 0 0 8.216 6.125 17.667 17.667 0 0 1-10.9 3.75A16.471 16.471 0 0 1 0 78.9a24.754 24.754 0 0 0 13.489 3.946c16.18 0 25.026-13.4 25.026-25.02 0-.389-.013-.764-.032-1.137a17.541 17.541 0 0 0 4.406-4.564z" data-name="Path 725" transform="translate(0 -48)"/>
        </g>
    </g>
</svg>
