<svg xmlns="http://www.w3.org/2000/svg" width="36.273" height="61.554" viewBox="0 0 36.273 61.554">
    <defs>
        <style>
            .cls-1{fill:#365e7d}.cls-2{fill:#2b4d66}.cls-3{fill:#61a2f9}.cls-4{fill:#5490f9}.cls-5{fill:#f6f1f1}.cls-6{fill:#e2a770}
        </style>
    </defs>
    <g id="customer-service" transform="translate(-105.145)">
        <path id="Path_2614" d="M121.243 4.81l2.811-.086a.639.639 0 0 0 .408-1.114L122.672 2a1.147 1.147 0 0 1 .767-2h19.251a8.632 8.632 0 0 1 8.632 8.632v12.19h-29.37V10.8a4.9 4.9 0 0 0-.53-2.218l-1.115-2.2a1.085 1.085 0 0 1 .935-1.575z" class="cls-1" data-name="Path 2614" transform="translate(-13.236)"/>
        <path id="Path_2615" d="M287.722 0h-2.682a8.632 8.632 0 0 1 8.632 8.632v12.19h2.682V8.632A8.632 8.632 0 0 0 287.722 0z" class="cls-2" data-name="Path 2615" transform="translate(-158.267)"/>
        <path id="Path_2616" d="M140.509 289.7h-34.455a.909.909 0 0 1-.909-.909v-17.41a12.04 12.04 0 0 1 12.04-12.04h12.192a12.04 12.04 0 0 1 12.04 12.04V288.8a.908.908 0 0 1-.908.9z" class="cls-3" data-name="Path 2616" transform="translate(0 -228.166)"/>
        <path id="Path_2617" d="M281.766 259.345h-3.408a12.04 12.04 0 0 1 12.04 12.04V289.7h2.5a.909.909 0 0 0 .909-.909v-17.41a12.04 12.04 0 0 0-12.041-12.036z" class="cls-4" data-name="Path 2617" transform="translate(-152.389 -228.166)"/>
        <path id="Path_2618" d="M195.11 249.839l-3.354 2.447a.578.578 0 0 1-.886-.276l-4.081-11.647 2.446-2.393 1.655 4.56z" class="cls-5" data-name="Path 2618" transform="translate(-71.828 -209.36)"/>
        <path id="Path_2619" d="M256 249.839l3.353 2.447a.578.578 0 0 0 .886-.276l4.081-11.647-2.446-2.393-1.655 4.56z" class="cls-5" data-name="Path 2619" transform="translate(-132.719 -209.36)"/>
        <path id="Path_2620" d="M225.12 283.21l4.22-7.309h-8.44z" class="cls-6" data-name="Path 2620" transform="translate(-101.839 -242.731)"/>
        <path id="Path_2621" fill="#f1d0a5" d="M170.216 103.24a11.723 11.723 0 0 1-11.723-11.722V81.367a4.455 4.455 0 0 1 .618-2.275 4.027 4.027 0 0 1 5.913-1.074 11.841 11.841 0 0 0 11.547 2.123 4.036 4.036 0 0 1 5.362 3.553v7.82a11.722 11.722 0 0 1-11.722 11.722z" data-name="Path 2621" transform="translate(-46.935 -67.893)"/>
        <g id="Group_584" data-name="Group 584" transform="translate(121.901 12.032)">
            <path id="Path_2622" fill="#f1b986" d="M257.618 103.848a4.036 4.036 0 0 0-5.362-3.553l-.066.021a3.93 3.93 0 0 1 2.667 3.532v7.82a11.724 11.724 0 0 1-10.342 11.641 11.724 11.724 0 0 0 13.1-11.641v-7.62q.008-.099.003-.2z" data-name="Path 2622" transform="translate(-244.52 -100.079)"/>
        </g>
        <g id="Group_587" data-name="Group 587" transform="translate(116.976 17.708)">
            <g id="Group_585" data-name="Group 585">
                <path id="Path_2623" d="M204.483 150.439a.929.929 0 0 1-.929-.929v-1.293a.929.929 0 0 1 1.857 0v1.293a.929.929 0 0 1-.928.929z" class="cls-2" data-name="Path 2623" transform="translate(-203.554 -147.289)"/>
            </g>
            <g id="Group_586" data-name="Group 586" transform="translate(10.753)">
                <path id="Path_2624" d="M293.926 150.439a.929.929 0 0 1-.929-.929v-1.293a.929.929 0 0 1 1.857 0v1.293a.928.928 0 0 1-.928.929z" class="cls-2" data-name="Path 2624" transform="translate(-292.997 -147.289)"/>
            </g>
        </g>
        <g id="Group_588" data-name="Group 588" transform="translate(120.306 27.327)">
            <path id="Path_2625" fill="#dd636e" d="M234.231 229.794a4.785 4.785 0 0 1-2.535-.77.929.929 0 1 1 .978-1.579 2.705 2.705 0 0 0 3.115 0 .929.929 0 1 1 .978 1.579 4.787 4.787 0 0 1-2.536.77z" data-name="Path 2625" transform="translate(-231.256 -227.306)"/>
        </g>
        <path id="Path_2626" d="M127.462 152.848h-1.88a2.361 2.361 0 1 1 0-4.722h1.88z" class="cls-6" data-name="Path 2626" transform="translate(-15.903 -130.318)"/>
        <g id="Group_589" data-name="Group 589" transform="translate(126.719 21.342)">
            <path id="Path_2627" d="M293.5 185.424h-7.975a.929.929 0 0 1 0-1.857h7.975a.67.67 0 0 0 .669-.669v-4.448a.929.929 0 1 1 1.857 0v4.45a2.529 2.529 0 0 1-2.526 2.524z" class="cls-2" data-name="Path 2627" transform="translate(-284.592 -177.521)"/>
        </g>
        <path id="Path_2628" d="M267.339 226.942h-2.431a1.137 1.137 0 0 1-1.137-1.137v-.518a1.137 1.137 0 0 1 1.137-1.137h2.431a1.137 1.137 0 0 1 1.137 1.137v.518a1.137 1.137 0 0 1-1.137 1.137z" class="cls-1" data-name="Path 2628" transform="translate(-139.555 -197.201)"/>
        <path id="Path_2629" d="M158.652 406.656h-25.5l-2.261-12.128a1.916 1.916 0 0 1 1.884-2.267h26.257a1.916 1.916 0 0 1 1.884 2.267z" class="cls-1" data-name="Path 2629" transform="translate(-22.619 -345.102)"/>
        <path id="Path_2630" d="M344.04 392.26h-2.515a1.916 1.916 0 0 1 1.884 2.267l-2.261 12.128h2.515l2.261-12.128a1.916 1.916 0 0 0-1.884-2.267z" class="cls-2" data-name="Path 2630" transform="translate(-207.63 -345.101)"/>
        <circle id="Ellipse_84" cx="2.639" cy="2.639" r="2.639" class="cls-5" data-name="Ellipse 84" transform="translate(120.643 54.069)"/>
        <path id="Path_2631" fill="#dae4ea" d="M248.747 449.742a2.628 2.628 0 0 0-.991.194 2.637 2.637 0 0 1 0 4.889 2.638 2.638 0 1 0 .991-5.083z" data-name="Path 2631" transform="translate(-125.466 -395.672)"/>
        <path id="Path_2632" d="M310.157 369.548h-6.346v-2.018a1.086 1.086 0 0 1 1.086-1.086h4.174a1.086 1.086 0 0 1 1.086 1.086v2.018z" class="cls-5" data-name="Path 2632" transform="translate(-174.782 -322.389)"/>
        <path id="Path_2633" d="M353.506 146.665h2.217a3.163 3.163 0 0 0 3.163-3.163v-.354a3.163 3.163 0 0 0-3.163-3.163h-2.217z" class="cls-3" data-name="Path 2633" transform="translate(-218.502 -123.156)"/>
        <path id="Path_2634" d="M355.722 139.987h-2.217a3.162 3.162 0 0 1 3.137 3.162v.354a3.162 3.162 0 0 1-3.137 3.162h2.217a3.163 3.163 0 0 0 3.163-3.163v-.354a3.163 3.163 0 0 0-3.163-3.161z" class="cls-4" data-name="Path 2634" transform="translate(-218.502 -123.157)"/>
    </g>
</svg>
