<svg xmlns="http://www.w3.org/2000/svg" width="47.912" height="85.291" viewBox="0 0 47.912 85.291">
    <defs>
        <style>
            .cls-3{fill:#afafaf}
        </style>
    </defs>
    <g id="surface1" transform="translate(-.5)">
        <path id="Path_2596" fill="#9b9b9b" d="M46.136 148.572l-14.531-7.329a1.013 1.013 0 0 0-1.088 0l-9.8 5.709a3.6 3.6 0 0 0-1.5 2.874v10.5l-7.826 4.518a3.6 3.6 0 0 0-1.5 2.874v10.5L2 182.766a3.6 3.6 0 0 0-1.5 2.875v8.492a1.506 1.506 0 0 0 .352 1.072l14.8 7.54a.941.941 0 0 0 1.026-.051l27.527-15.942A5.961 5.961 0 0 0 46.7 182v-32.192a1.294 1.294 0 0 0-.564-1.236zm0 0" data-name="Path 2596" transform="translate(0 -117.584)"/>
        <path id="Path_2597" fill="#d1d1d1" d="M107.306 194.294v10.5l-7.825 4.518a3.6 3.6 0 0 0-1.5 2.874v10.5l-7.881 4.543a3.6 3.6 0 0 0-1.5 2.874v8.497c0 1.108.673 1.617 1.5 1.137l27.527-15.942a5.961 5.961 0 0 0 2.489-4.756v-32.192c0-1.108-.674-1.617-1.5-1.137l-9.8 5.71a3.6 3.6 0 0 0-1.51 2.874zm0 0" data-name="Path 2597" transform="translate(-73.422 -154.623)"/>
        <path id="Path_2598" d="M16.68 375.966l7.874-4.546L9.878 364 2 368.542a3.6 3.6 0 0 0-1.5 2.875l14.676 7.424a3.6 3.6 0 0 1 1.504-2.875zm0 0" class="cls-3" data-name="Path 2598" transform="translate(0 -303.36)"/>
        <path id="Path_2599" d="M72.978 268.54l7.825-4.518-14.676-7.422-7.827 4.516a3.6 3.6 0 0 0-1.5 2.874l14.676 7.424a3.6 3.6 0 0 1 1.502-2.874zm0 0" class="cls-3" data-name="Path 2599" transform="translate(-46.919 -213.853)"/>
        <path id="Path_2600" d="M128.985 154.381l9.8-5.71a.978.978 0 0 1 .944-.1l-14.53-7.329a1.013 1.013 0 0 0-1.088 0l-9.8 5.709a3.6 3.6 0 0 0-1.5 2.874l14.676 7.424a3.6 3.6 0 0 1 1.498-2.868zm0 0" class="cls-3" data-name="Path 2600" transform="translate(-93.597 -117.584)"/>
        <path id="Path_2601" fill="#e84c3d" d="M209.369 13.669l-15.74 9.087V9.087L209.369 0l-3.136 8.645zm0 0" data-name="Path 2601" transform="translate(-160.957)"/>
        <path id="Path_2602" fill="#656565" d="M188.746 72.7a.976.976 0 0 1-.976-.977V49.132a.976.976 0 1 1 1.952 0v22.589a.976.976 0 0 1-.976.979zm0 0" data-name="Path 2602" transform="translate(-156.074 -40.134)"/>
    </g>
</svg>
