<svg xmlns="http://www.w3.org/2000/svg" width="387.615" height="77.716" viewBox="0 0 387.615 77.716">
    <defs>
        <style>
            .cls-1{fill:#abc720}.cls-2{fill:#006fad}.cls-4{fill:#868686}
        </style>
    </defs>
    <g id="Group_236" data-name="Group 236" transform="translate(12.378 -818.902)">
        <g id="Group_188" data-name="Group 188" transform="translate(-12.378 818.902)">
            <g id="Group_187" data-name="Group 187">
                <g id="Group_185" data-name="Group 185" transform="translate(21.942 23.475)">
                    <g id="Group_184" data-name="Group 184">
                        <path id="Path_1798" d="M98.777 129.4l-10.768 20.209 1.42 5.032 4.608-1.788z" class="cls-1" data-name="Path 1798" transform="translate(-88.009 -129.397)"/>
                    </g>
                </g>
                <g id="Group_186" data-name="Group 186" transform="translate(.022 40.905)">
                    <path id="Path_1799" d="M135.864 147.7a30.2 30.2 0 0 1-28.407 27.879v8.932A38.785 38.785 0 0 0 144.5 147.7z" class="cls-2" data-name="Path 1799" transform="translate(-67.014 -147.697)"/>
                    <path id="Path_1800" d="M102.031 175.576a30.2 30.2 0 0 1-28.4-27.879h-8.636a38.787 38.787 0 0 0 37.036 36.812z" class="cls-2" data-name="Path 1800" transform="translate(-64.995 -147.697)"/>
                </g>
                <path id="Path_1801" d="M105.15 104.754a27.273 27.273 0 0 0-10.419 1.821l10.419 9.092 10.42-9.092a27.276 27.276 0 0 0-10.42-1.821z" class="cls-1" data-name="Path 1801" transform="translate(-66.387 -104.75)"/>
                <path id="Path_1802" d="M106.338 119.342l-1.124-3.13-1.125 3.13L96.075 159l9.139 9.974 9.14-9.974z" class="cls-1" data-name="Path 1802" transform="translate(-66.451 -105.295)"/>
                <path id="Path_1803" d="M87.44 108.714a38.788 38.788 0 0 0-22.468 33.723h8.585a30.206 30.206 0 0 1 20.9-27.6z" class="cls-2" data-name="Path 1803" transform="translate(-64.972 -104.939)"/>
                <path id="Path_1804" d="M122.427 108.714l-7.011 6.12a30.2 30.2 0 0 1 20.9 27.6h8.584a38.787 38.787 0 0 0-22.473-33.72z" class="cls-2" data-name="Path 1804" transform="translate(-67.37 -104.939)"/>
            </g>
        </g>
        <g id="Group_193" data-name="Group 193" transform="translate(92.258 831.453)">
            <g id="Group_192" data-name="Group 192">
                <path id="Path_1762" d="M166.417 149.086h-3.7v-22.974h3.7z" class="cls-2" data-name="Path 1762" transform="translate(-162.719 -118.889)"/>
                <path id="Path_1763" d="M176.266 149.086h-3.655v-13.618a9.333 9.333 0 1 1 18.665 0v13.618h-3.655v-13.75a5.679 5.679 0 1 0-11.356 0z" class="cls-2" data-name="Path 1763" transform="translate(-164.998 -118.889)"/>
                <path id="Path_1764" d="M210.6 147.822c-5.221.608-8.832-2.48-8.832-8.18v-10.7h-3.045v-3.524h3.045v-4.787h3.656v4.787h5.091v3.524h-5.091v10.7c0 3.959 2.437 4.96 5.177 4.786z" class="cls-2" data-name="Path 1764" transform="translate(-171.016 -117.626)"/>
                <path id="Path_1765" d="M236.671 142.123c-1.565 4.788-5.4 7.483-10.573 7.483a11.754 11.754 0 0 1-.217-23.495c5.787 0 11.356 4.786 11.312 12.748h-18.84a7.868 7.868 0 0 0 7.744 7.4 6.9 6.9 0 0 0 6.658-4.134zm-3.568-6.569a7.7 7.7 0 0 0-7.223-6.091 7.793 7.793 0 0 0-7.309 6.091z" class="cls-2" data-name="Path 1765" transform="translate(-174.676 -118.889)"/>
                <path id="Path_1766" d="M271.592 149.255h-3.96l-8.132-22.407h3.917l6.22 17.838 6.18-17.838h3.915z" class="cls-2" data-name="Path 1766" transform="translate(-185.018 -119.059)"/>
                <path id="Path_1767" d="M291.4 149.255h-3.7v-22.407h3.7z" class="cls-2" data-name="Path 1767" transform="translate(-191.518 -119.059)"/>
                <path id="Path_1768" d="M317.9 142.123c-1.566 4.788-5.395 7.483-10.573 7.483a11.754 11.754 0 0 1-.218-23.495c5.787 0 11.357 4.786 11.314 12.748h-18.837a7.867 7.867 0 0 0 7.744 7.4 6.9 6.9 0 0 0 6.658-4.134zm-3.569-6.569a7.7 7.7 0 0 0-7.223-6.091 7.8 7.8 0 0 0-7.31 6.091z" class="cls-2" data-name="Path 1768" transform="translate(-193.393 -118.889)"/>
                <path id="Path_1769" d="M346.62 143.686l4.742-16.838h3.873l-6.7 22.407h-3.873l-4.784-17.143-4.788 17.143h-3.828l-6.7-22.407h3.874l4.785 16.838 4.786-16.838h3.829z" class="cls-2" data-name="Path 1769" transform="translate(-200.01 -119.059)"/>
                <path id="Path_1770" d="M362.772 116.727h4.4l7.658 11.7 7.613-11.7h4.394L377 131.564l10.227 15.359h-4.44l-7.96-12.226-8.007 12.226h-4.437l10.217-15.359z" class="cls-1" data-name="Path 1770" transform="translate(-208.724 -116.727)"/>
                <path id="Path_1771" d="M406.254 149.651a10.059 10.059 0 0 1-7.744-3.786v9.107h-3.569V137.9c0-6.613 4.917-11.791 11.269-11.791 6.177 0 11.227 5.048 11.227 11.791 0 6.7-4.962 11.751-11.183 11.751zm-.044-20.1c-4.09 0-7.57 3.7-7.57 8.353s3.438 8.355 7.57 8.355 7.527-3.655 7.527-8.355-3.394-8.354-7.527-8.354z" class="cls-1" data-name="Path 1771" transform="translate(-216.227 -118.889)"/>
                <path id="Path_1772" d="M437.754 126.256v3.437c-4.308-.391-7.049 1.7-7.049 6v13.4h-3.654v-13.308c0-6.785 4.831-10.226 10.703-9.529z" class="cls-1" data-name="Path 1772" transform="translate(-223.626 -118.902)"/>
                <path id="Path_1773" d="M463.414 142.123c-1.567 4.788-5.4 7.483-10.573 7.483a11.754 11.754 0 0 1-.218-23.495c5.787 0 11.356 4.786 11.312 12.748H445.1a7.869 7.869 0 0 0 7.745 7.4 6.9 6.9 0 0 0 6.658-4.134zm-3.568-6.569a7.7 7.7 0 0 0-7.223-6.091 7.793 7.793 0 0 0-7.31 6.091z" class="cls-1" data-name="Path 1773" transform="translate(-226.921 -118.889)"/>
                <path id="Path_1774" d="M481.379 149.651c-5.438 0-9.4-2.915-10.008-7.657h3.743c.476 2.61 3.045 4.22 6.265 4.22 3.479 0 5.613-1.7 5.613-3.656 0-1.565-.609-2.74-6.091-3.479-5.44-.783-8.746-2.089-8.746-6.31 0-3.219 2.785-6.657 8.789-6.657 5.176 0 8.659 2.611 9.137 7.006h-3.743c-.521-2.393-2.653-3.611-5.394-3.611-2.958 0-5.092 1.391-5.092 3.132 0 1.61 1.264 2.176 5.657 2.872 4.96.782 9.052 1.739 9.052 6.831-.001 4.481-3.83 7.309-9.182 7.309z" class="cls-1" data-name="Path 1774" transform="translate(-233.838 -118.889)"/>
                <path id="Path_1775" d="M506.987 149.651c-5.439 0-9.4-2.915-10.01-7.657h3.744c.479 2.61 3.045 4.22 6.266 4.22 3.479 0 5.611-1.7 5.611-3.656 0-1.565-.609-2.74-6.091-3.479-5.439-.783-8.746-2.089-8.746-6.31 0-3.219 2.787-6.657 8.789-6.657 5.178 0 8.658 2.611 9.137 7.006h-3.741c-.522-2.393-2.655-3.611-5.4-3.611-2.958 0-5.091 1.391-5.091 3.132 0 1.61 1.262 2.176 5.657 2.872 4.961.782 9.05 1.739 9.05 6.831.005 4.481-3.826 7.309-9.175 7.309z" class="cls-1" data-name="Path 1775" transform="translate(-239.738 -118.889)"/>
                <path id="Path_1797" d="M254.165 126.588c-4.359.663-7.557 3.967-7.557 9.492v13.052h3.654v-13.139c0-3.629 1.951-5.676 5.139-6z" class="cls-2" data-name="Path 1797" transform="translate(-182.049 -118.999)"/>
                <path id="Path_1796" fill="#abc720" fill-rule="evenodd" d="M528.419 128.515l-.066-1.222c-.022-.389-.047-.859-.047-1.2h-.006c-.1.322-.211.673-.352 1.056l-.491 1.35h-.272l-.454-1.324c-.131-.4-.239-.752-.317-1.081h-.014c-.007.346-.028.809-.052 1.23l-.076 1.193h-.342l.194-2.783h.459l.475 1.346c.115.342.206.649.281.937h.008c.074-.281.173-.587.3-.937l.5-1.346h.457l.175 2.783zm-3.564 0h-.362v-2.477h-.847v-.305h2.059v.305h-.85z" data-name="Path 1796" transform="translate(-245.883 -118.296)"/>
            </g>
            <g id="Group_180" data-name="Group 180" transform="translate(136.413 40.297)">
                <path id="Path_1776" d="M162.719 172.2v-10.341h1.628V172.2z" class="cls-4" data-name="Path 1776" transform="translate(-162.719 -161.859)"/>
                <path id="Path_1777" d="M171.635 173v-4.68c0-1.178-.6-1.551-1.519-1.551a2.55 2.55 0 0 0-1.922.991V173h-1.628v-7.49h1.628v1.007a3.571 3.571 0 0 1 2.65-1.193 2.159 2.159 0 0 1 2.419 2.4V173z" class="cls-4" data-name="Path 1777" transform="translate(-163.606 -162.657)"/>
                <path id="Path_1778" d="M177.071 170.688v-4.324h-1.24v-1.411h1.24v-2.047h1.629v2.047h1.52v1.411h-1.52v3.922c0 .511.248.9.713.9a1.012 1.012 0 0 0 .713-.278l.388 1.24a2.2 2.2 0 0 1-1.521.48 1.725 1.725 0 0 1-1.922-1.94z" class="cls-4" data-name="Path 1778" transform="translate(-165.74 -162.1)"/>
                <path id="Path_1779" d="M181.833 169.246a3.783 3.783 0 0 1 3.8-3.922c2.249 0 3.674 1.705 3.674 4.062v.4h-5.766a2.263 2.263 0 0 0 2.372 2.061 3.145 3.145 0 0 0 2.14-.837l.743 1.07a4.423 4.423 0 0 1-3.037 1.1 3.756 3.756 0 0 1-3.926-3.934zm3.783-2.588a2.048 2.048 0 0 0-2.093 1.968h4.217a2.014 2.014 0 0 0-2.124-1.968z" class="cls-4" data-name="Path 1779" transform="translate(-167.123 -162.657)"/>
                <path id="Path_1780" d="M192.629 173v-7.49h1.627v1.09a3.247 3.247 0 0 1 2.434-1.271v1.612a2.264 2.264 0 0 0-.5-.047 2.557 2.557 0 0 0-1.938 1.008V173z" class="cls-4" data-name="Path 1780" transform="translate(-169.611 -162.657)"/>
                <path id="Path_1781" d="M200.255 173.052l-3.055-7.487h1.752l2.186 5.612 2.186-5.612h1.737l-3.054 7.487z" class="cls-4" data-name="Path 1781" transform="translate(-170.664 -162.713)"/>
                <path id="Path_1782" d="M207.732 173.052v-7.487h1.628v7.487z" class="cls-4" data-name="Path 1782" transform="translate(-173.091 -162.713)"/>
                <path id="Path_1783" d="M211 169.246a3.783 3.783 0 0 1 3.8-3.922c2.247 0 3.673 1.705 3.673 4.062v.4H212.7a2.262 2.262 0 0 0 2.372 2.061 3.147 3.147 0 0 0 2.139-.837l.743 1.07a4.426 4.426 0 0 1-3.039 1.1 3.754 3.754 0 0 1-3.915-3.934zm3.783-2.588a2.048 2.048 0 0 0-2.094 1.968h4.211a2.015 2.015 0 0 0-2.12-1.968z" class="cls-4" data-name="Path 1783" transform="translate(-173.843 -162.657)"/>
                <path id="Path_1784" d="M228.041 173.052l-1.751-5.486-1.738 5.486h-1.705l-2.326-7.487h1.69l1.582 5.442 1.782-5.442h1.442l1.766 5.442 1.582-5.442h1.7l-2.324 7.487z" class="cls-4" data-name="Path 1784" transform="translate(-176.038 -162.713)"/>
                <path id="Path_1785" d="M235.992 173.052v-7.487h1.625v7.487z" class="cls-4" data-name="Path 1785" transform="translate(-179.602 -162.713)"/>
                <path id="Path_1786" d="M244.906 173v-4.68c0-1.178-.6-1.551-1.52-1.551a2.551 2.551 0 0 0-1.921.991V173h-1.628v-7.49h1.628v1.007a3.572 3.572 0 0 1 2.65-1.193 2.159 2.159 0 0 1 2.419 2.4V173z" class="cls-4" data-name="Path 1786" transform="translate(-180.488 -162.657)"/>
                <path id="Path_1787" d="M250.043 174.92l.76-1.179a2.951 2.951 0 0 0 2.386.962 1.983 1.983 0 0 0 2.216-2.092v-.853a3.007 3.007 0 0 1-2.4 1.254c-1.908 0-3.318-1.379-3.318-3.844 0-2.433 1.378-3.844 3.318-3.844a2.936 2.936 0 0 1 2.4 1.225v-1.039h1.628v7.1c0 2.7-2.013 3.425-3.845 3.425a4.287 4.287 0 0 1-3.145-1.115zm5.362-4.356v-2.807a2.482 2.482 0 0 0-1.922-.991 2.412 2.412 0 0 0 0 4.79 2.485 2.485 0 0 0 1.917-.992z" class="cls-4" data-name="Path 1787" transform="translate(-182.758 -162.657)"/>
                <path id="Path_1788" d="M274.348 173v-4.883c0-.806-.357-1.348-1.241-1.348a2.235 2.235 0 0 0-1.738.991V173h-1.628v-4.883c0-.806-.341-1.348-1.223-1.348a2.3 2.3 0 0 0-1.737.991V173h-1.626v-7.49h1.626v1.007a3.321 3.321 0 0 1 2.45-1.193 1.957 1.957 0 0 1 2.046 1.364 3.158 3.158 0 0 1 2.542-1.364 1.98 1.98 0 0 1 2.155 2.263V173z" class="cls-4" data-name="Path 1788" transform="translate(-186.322 -162.657)"/>
                <path id="Path_1789" d="M285.4 173v-.821a3.149 3.149 0 0 1-2.432 1.007 2.494 2.494 0 0 1-2.591-2.48 2.4 2.4 0 0 1 2.591-2.45 3.13 3.13 0 0 1 2.432.961V168.1c0-.868-.73-1.395-1.752-1.395a3 3 0 0 0-2.218.96l-.68-1.132a4.387 4.387 0 0 1 3.147-1.209c1.675 0 3.131.7 3.131 2.7V173zm0-1.7v-1.147a2.231 2.231 0 0 0-1.782-.777 1.371 1.371 0 1 0 0 2.7 2.234 2.234 0 0 0 1.782-.783z" class="cls-4" data-name="Path 1789" transform="translate(-189.83 -162.657)"/>
                <path id="Path_1790" d="M295.888 172.2v-1.023a3 3 0 0 1-2.4 1.209c-1.908 0-3.318-1.457-3.318-3.937 0-2.418 1.4-3.922 3.318-3.922a2.916 2.916 0 0 1 2.4 1.225v-3.892h1.628v10.34zm0-2.263v-2.961a2.424 2.424 0 0 0-1.922-1.007 2.519 2.519 0 0 0 0 4.975 2.422 2.422 0 0 0 1.922-1.008z" class="cls-4" data-name="Path 1790" transform="translate(-192.085 -161.859)"/>
                <path id="Path_1791" d="M300.862 169.246a3.786 3.786 0 0 1 3.8-3.922c2.249 0 3.675 1.705 3.675 4.062v.4h-5.767a2.261 2.261 0 0 0 2.371 2.061 3.137 3.137 0 0 0 2.139-.837l.746 1.07a4.435 4.435 0 0 1-3.039 1.1 3.756 3.756 0 0 1-3.925-3.934zm3.783-2.588a2.047 2.047 0 0 0-2.092 1.968h4.216a2.016 2.016 0 0 0-2.124-1.968z" class="cls-4" data-name="Path 1791" transform="translate(-194.549 -162.657)"/>
                <path id="Path_1792" d="M315.264 169.246a3.784 3.784 0 0 1 3.8-3.922c2.249 0 3.676 1.705 3.676 4.062v.4h-5.77a2.262 2.262 0 0 0 2.373 2.061 3.145 3.145 0 0 0 2.138-.837l.743 1.07a4.423 4.423 0 0 1-3.04 1.1 3.755 3.755 0 0 1-3.92-3.934zm3.783-2.588a2.049 2.049 0 0 0-2.093 1.968h4.217a2.014 2.014 0 0 0-2.124-1.968z" class="cls-4" data-name="Path 1792" transform="translate(-197.868 -162.657)"/>
                <path id="Path_1793" d="M330.518 173v-.821a3.148 3.148 0 0 1-2.434 1.007 2.492 2.492 0 0 1-2.588-2.48 2.4 2.4 0 0 1 2.588-2.45 3.129 3.129 0 0 1 2.434.961V168.1c0-.868-.729-1.395-1.752-1.395a3 3 0 0 0-2.217.96l-.683-1.132a4.39 4.39 0 0 1 3.148-1.209c1.676 0 3.131.7 3.131 2.7V173zm0-1.7v-1.147a2.228 2.228 0 0 0-1.781-.777 1.371 1.371 0 1 0 0 2.7 2.231 2.231 0 0 0 1.781-.783z" class="cls-4" data-name="Path 1793" transform="translate(-200.226 -162.657)"/>
                <path id="Path_1794" d="M335.045 172l.743-1.162a3.845 3.845 0 0 0 2.527 1.038c.976 0 1.486-.4 1.486-.991 0-1.474-4.527-.419-4.527-3.3 0-1.225 1.057-2.263 2.947-2.263a4.278 4.278 0 0 1 2.9 1.038l-.68 1.148a3.06 3.06 0 0 0-2.218-.9c-.854 0-1.381.4-1.381.93 0 1.318 4.527.326 4.527 3.3 0 1.333-1.1 2.34-3.117 2.34a4.524 4.524 0 0 1-3.207-1.178z" class="cls-4" data-name="Path 1794" transform="translate(-202.426 -162.657)"/>
                <path id="Path_1795" d="M343.964 174.525a1.685 1.685 0 0 0 .62.124 1.022 1.022 0 0 0 1.085-.65l.374-.853-3.088-7.58h1.753l2.185 5.612 2.185-5.612h1.738L347.2 174.4a2.487 2.487 0 0 1-2.556 1.69 4.464 4.464 0 0 1-.915-.109z" class="cls-4" data-name="Path 1795" transform="translate(-204.248 -162.713)"/>
            </g>
        </g>
    </g>
</svg>
